{"title":"Charade(1963)MP-4[DaScubaDude","uid":12349764,"size":1115023523,"categoryP":"video","categoryS":"movies","magnet":"?xt=urn:btih:9303f3605fd762f1ac892138164eff86a23adf67&amp;dn=Charade%281963%29MP-4%5BDaScubaDude&amp;tr=udp%3A%2F%2Ftracker.openbittorrent.com%3A80&amp;tr=udp%3A%2F%2Fopen.demonii.com%3A1337&amp;tr=udp%3A%2F%2Ftracker.coppersurfer.tk%3A6969&amp;tr=udp%3A%2F%2Fexodus.desync.com%3A6969","seeders":0,"leechers":0,"uploader":"dascuba","files":1,"time":1441404348,"description":"Charade (1963)\nNot Rated  |  113 min  |  Comedy, Mystery, Romance  |  5 December 1963 (USA)\n8.0 Your rating:   -/10   Ratings: 8.0/10 from 45,923 users   \nReviews: 250 user | 105 critic\nRomance and suspense in Paris, as a woman is pursued by several men who want a fortune her murdered husband had stolen. Who can she trust?\n\nDirector: Stanley Donen\nWriters: Peter Stone (screenplay), Peter Stone (story), 1 more credit Â»\nStars: Cary Grant, Audrey Hepburn, Walter Matthau\n\nGeneral\nComplete name                            : C:CharadeCHARADE_Title4.mp4\nFormat                                   : MPEG-4\nFormat profile                           : Base Media\nCodec ID                                 : isom\nFile size                                : 1.04 GiB\nDuration                                 : 1h 53mn\nOverall bit rate                         : 1 310 Kbps\nMovie name                               : CHARADE\nGenre                                    : Mystery\nWriting application                      : Lavf54.6.100\n\nVideo\nID                                       : 1\nFormat                                   : AVC\nFormat/Info                              : Advanced Video Codec\nFormat profile                           : Baseline@L3\nFormat settings, CABAC                   : No\nFormat settings, ReFrames                : 6 frames\nFormat settings, GOP                     : M=1, N=60\nCodec ID                                 : avc1\nCodec ID/Info                            : Advanced Video Coding\nDuration                                 : 1h 53mn\nBit rate                                 : 1 199 Kbps\nWidth                                    : 720 pixels\nHeight                                   : 404 pixels\nDisplay aspect ratio                     : 16:9\nFrame rate mode                          : Constant\nFrame rate                               : 29.970 fps\nColor space                              : YUV\nChroma subsampling                       : 4:2:0\nBit depth                                : 8 bits\nScan type                                : Progressive\nBits/(Pixel*Frame)                       : 0.138\nStream size                              : 973 MiB (92%)\n\nAudio\nID                                       : 2\nFormat                                   : AAC\nFormat/Info                              : Advanced Audio Codec\nFormat profile                           : LC\nCodec ID                                 : 40\nDuration                                 : 1h 53mn\nBit rate mode                            : Constant\nBit rate                                 : 104 Kbps\nChannel(s)                               : 2 channels\nChannel(s)_Original                      : 1 channel\nChannel positions                        : Front: C\nSampling rate                            : 44.1 KHz\nCompression mode                         : Lossy\nStream size                              : 84.5 MiB (8%)","torrent":{"xt":"urn:btih:9303f3605fd762f1ac892138164eff86a23adf67","amp;dn":"Charade%281963%29MP-4%5BDaScubaDude","amp;tr":["udp%3A%2F%2Ftracker.openbittorrent.com%3A80","udp%3A%2F%2Fopen.demonii.com%3A1337","udp%3A%2F%2Ftracker.coppersurfer.tk%3A6969","udp%3A%2F%2Fexodus.desync.com%3A6969"],"infoHash":"9303f3605fd762f1ac892138164eff86a23adf67","infoHashBuffer":{"type":"Buffer","data":[147,3,243,96,95,215,98,241,172,137,33,56,22,78,255,134,162,58,223,103]},"announce":[],"urlList":[]}}